<svg fill="none" height="24" viewBox="0 0 24 24" width="24" xmlns="http://www.w3.org/2000/svg">
   <g stroke-width="1.5">
      <rect height="20" rx="4" width="17.5" x="4" y="2" />
      <path
         d="m10.59 13.7408c-.62875.4212-2.27739 1.2813-1.27326 2.3575.49051.5257 1.03686.9017 1.72366.9017h3.9192c.6868 0 1.2332-.376 1.7237-.9017 1.0041-1.0762-.6445-1.9363-1.2733-2.3575-1.4745-.9877-3.3455-.9877-4.82 0z" />
      <path d="m15 9c0 1.1046-.8954 2-2 2s-2-.8954-2-2c0-1.10457.8954-2 2-2s2 .89543 2 2z" />
      <path d="m5 6h-2.5m2.5 6h-2.5m2.5 6h-2.5" stroke-linecap="round" stroke-linejoin="round" />
   </g>
</svg>